PathFileType	4	(X/Y/Z)	Kaydara	
DataRate	CameraRate	NumFrames	NumMarkers	Units	OrigDataRate	OrigDataStartFrame	OrigNumFrames	
120.00	120.00	4	72	mm	120.00	68	268	
Frame#	Time	Hips			RightUpLeg			RightLeg			RightFoot			RightFoot_End			LeftUpLeg			LeftLeg			LeftFoot			LeftFoot_End			Spine			Spine1			Spine2			Spine3			Neck			Head			Head_End			RightShoulder			RightArm			RightForeArm			RightHand			RightHandThumb1			RightHandThumb2			RightHandThumb3			RightHandThumb3_End			RightInHandIndex			RightHandIndex1			RightHandIndex2			RightHandIndex3			RightHandIndex3_End			RightInHandMiddle			RightHandMiddle1			RightHandMiddle2			RightHandMiddle3			RightHandMiddle3_End			RightInHandRing			RightHandRing1			RightHandRing2			RightHandRing3			RightHandRing3_End			RightInHandPinky			RightHandPinky1			RightHandPinky2			RightHandPinky3			RightHandPinky3_End			LeftShoulder			LeftArm			LeftForeArm			LeftHand			LeftHandThumb1			LeftHandThumb2			LeftHandThumb3			LeftHandThumb3_End			LeftInHandIndex			LeftHandIndex1			LeftHandIndex2			LeftHandIndex3			LeftHandIndex3_End			LeftInHandMiddle			LeftHandMiddle1			LeftHandMiddle2			LeftHandMiddle3			LeftHandMiddle3_End			LeftInHandRing			LeftHandRing1			LeftHandRing2			LeftHandRing3			LeftHandRing3_End			LeftInHandPinky			LeftHandPinky1			LeftHandPinky2			LeftHandPinky3			LeftHandPinky3_End			
		X1	Y1	Z1	X2	Y2	Z2	X3	Y3	Z3	X4	Y4	Z4	X5	Y5	Z5	X6	Y6	Z6	X7	Y7	Z7	X8	Y8	Z8	X9	Y9	Z9	X10	Y10	Z10	X11	Y11	Z11	X12	Y12	Z12	X13	Y13	Z13	X14	Y14	Z14	X15	Y15	Z15	X16	Y16	Z16	X17	Y17	Z17	X18	Y18	Z18	X19	Y19	Z19	X20	Y20	Z20	X21	Y21	Z21	X22	Y22	Z22	X23	Y23	Z23	X24	Y24	Z24	X25	Y25	Z25	X26	Y26	Z26	X27	Y27	Z27	X28	Y28	Z28	X29	Y29	Z29	X30	Y30	Z30	X31	Y31	Z31	X32	Y32	Z32	X33	Y33	Z33	X34	Y34	Z34	X35	Y35	Z35	X36	Y36	Z36	X37	Y37	Z37	X38	Y38	Z38	X39	Y39	Z39	X40	Y40	Z40	X41	Y41	Z41	X42	Y42	Z42	X43	Y43	Z43	X44	Y44	Z44	X45	Y45	Z45	X46	Y46	Z46	X47	Y47	Z47	X48	Y48	Z48	X49	Y49	Z49	X50	Y50	Z50	X51	Y51	Z51	X52	Y52	Z52	X53	Y53	Z53	X54	Y54	Z54	X55	Y55	Z55	X56	Y56	Z56	X57	Y57	Z57	X58	Y58	Z58	X59	Y59	Z59	X60	Y60	Z60	X61	Y61	Z61	X62	Y62	Z62	X63	Y63	Z63	X64	Y64	Z64	X65	Y65	Z65	X66	Y66	Z66	X67	Y67	Z67	X68	Y68	Z68	X69	Y69	Z69	X70	Y70	Z70	X71	Y71	Z71	X72	Y72	Z72	

68	0.558	8446.805	859.65103	-201.189	8531.877687576702	855.4764543052967	-232.46992391418996	8394.983307408958	463.90609852193126	-285.2483083391201	8432.30654838049	46.157549398393975	-345.9347693052367	8355.56721715967	-32.767154947296056	-187.9478674970514	8371.157358810717	836.0835758000178	-155.94355738178865	8249.885195370602	439.48555910931947	-98.62706323853014	8193.762679725605	63.03508062377543	70.95838492351531	8227.816989690173	18.199432704117605	252.21500288975184	8400.398567586495	981.0633527583328	-260.3904961795046	8346.907067054208	1046.1645269995856	-308.1160766082284	8284.564974263496	1107.3121809490522	-358.1856445115674	8216.797733146024	1156.3549288412887	-406.5873277744187	8143.5908703867435	1209.1121128664872	-454.80750291005893	8101.961598076601	1281.5987165567858	-410.73224025947695	8078.47748705288	1367.1727611236001	-278.27193957292405	8186.556435120874	1198.681784999621	-457.5253842449883	8262.493561121775	1202.157193076758	-531.287660817206	8335.098752554644	989.1975885251861	-548.7124037730711	8423.926753110552	900.8119832112723	-632.5609513463837	8426.716743868743	907.685711656577	-645.3924134186997	8418.585967585239	909.4481663819844	-661.4813299642428	8414.265461179142	908.4724158093177	-671.8102997861788	8411.811488271875	905.774258224106	-679.6722719450762	8433.4350502539	900.2769776815819	-643.0178676738981	8445.786009998677	891.9017981681053	-657.5451873170342	8445.554403109243	886.8308187169116	-669.8656658928803	8438.514059738278	886.5384111090555	-678.3246530945455	8428.034969008859	888.2256931509089	-685.8653408389795	8436.235013388428	894.6123357621051	-640.2364970837596	8449.798787344986	883.3792142917104	-652.9009329327721	8449.864419126803	877.1264398675131	-665.9336694306014	8441.523259450421	876.428488317679	-675.9417320167538	8430.131488100511	878.1068792638578	-684.0966490508205	8437.99886531063	890.800229353537	-637.8754641451864	8451.980940820442	877.3544137034696	-647.1018126470417	8452.341052639495	871.1872152631438	-658.0210693168791	8444.456186456166	870.1330865566131	-667.4409084289667	8433.821264634302	871.5307023134902	-674.997825887008	8438.879485560177	886.8363660447056	-634.9325277017331	8452.589065043632	871.9778111438819	-641.5004303521198	8453.288277021804	865.9791550442952	-649.5174707789254	8447.735763785324	864.6974207152276	-656.0368130832	8438.429328693059	865.640330487314	-662.5287067008193	8148.622109718914	1187.4770970266932	-418.1499789493274	8095.22886647681	1123.8936159218388	-347.515892974915	8197.69377196627	997.4942842544864	-509.6374385517978	8376.744974247202	934.7725855073024	-494.9936707362996	8369.476705234727	945.0345089285903	-500.87506988918574	8374.51591717463	944.8011319131965	-526.4783297815565	8378.627661646351	942.5687105044344	-546.3215397956626	8382.570812417709	938.9368919879091	-564.5861169066109	8369.791334140238	939.075909451517	-507.43988840510946	8366.501298798337	935.7232767859422	-539.0877942324978	8370.504586419238	930.6130191785494	-567.4744965745214	8376.212133781939	927.8578588962416	-584.5194822811969	8383.107384626883	925.8619872774445	-598.2208575703086	8371.843482845456	933.4308076868685	-512.116093915938	8369.742693614815	927.108103625124	-545.5120568997075	8374.400385445708	920.7943448413848	-577.0099030810868	8381.425171546976	917.1164650639975	-597.8246862712907	8389.0373225273	914.7605857630199	-612.9383140630605	8373.316668570653	929.5420971902527	-514.5670770615693	8372.535432216097	920.5409754194156	-546.4920567701975	8376.894778766668	914.2939370105063	-574.4274167611396	8383.829899478198	910.3512551602333	-594.7607471975314	8391.062664345502	907.9489177857282	-609.0925916092765	8375.587405314243	925.0469830263902	-516.8307795250937	8376.066308920414	914.0658832246166	-547.366461568777	8380.028506900928	907.9420012762816	-570.348711199908	8385.315042883105	904.5236933699414	-585.4762851909038	8391.853328227116	902.0833997127958	-598.3425268769223
69	0.567	8446.805	859.65103	-201.189	8531.568188140764	855.3990958086763	-232.47920338257427	8395.073314650474	463.73503663251927	-285.01844451768096	8432.782420281563	46.35914839875092	-346.17095169046314	8356.497984878488	-32.7116408151735	-188.3325066387565	8371.446437820638	836.1515023643966	-155.9412144266786	8250.14389257443	439.60873232610464	-98.39762139098283	8193.900194368296	63.17900675002564	71.1767374685878	8228.17585408562	18.31080303799872	252.35428381383488	8400.506597296002	981.1095182303239	-260.3592955261215	8347.081531017224	1046.2924387106925	-308.03194733371555	8284.821701984847	1107.5524877678765	-358.04345536730045	8217.137150242073	1156.7283473381237	-406.3905171275656	8144.016962151568	1209.6232481775983	-454.54931700920827	8102.390447645948	1282.1226360912037	-410.51232771771043	8078.906340067608	1367.7348121330003	-278.09873587666885	8186.880190943394	1199.1325643925786	-457.22620566946904	8262.570017552582	1202.665883216521	-530.6994400400058	8335.493851191317	990.2003457235874	-547.8070333328692	8424.256555403115	902.7150492956815	-631.709079372776	8427.10633656088	909.7796590444344	-644.4348262936957	8419.090976983076	911.6906864486954	-660.5139464286411	8414.84539554156	910.8091698188362	-670.8512201709091	8412.449220937875	908.1816732040239	-678.7330549909734	8433.804019348567	902.359852378966	-642.0984732333018	8446.223067035202	894.2057030287476	-656.6061257501781	8446.07392612101	889.2644550740048	-668.9467369408092	8439.103266355953	889.0298510878918	-677.4260083827351	8428.694273887784	890.7495638354902	-684.988725021543	8436.588453690794	896.6612628174072	-639.3605353381962	8450.210229041782	885.6253721014826	-652.0292715882069	8450.363621580978	879.5089342052237	-665.0898136557418	8442.105464443126	878.8782125508292	-675.1251493878171	8430.789874035758	880.5908692906969	-683.3055316930146	8438.339218696507	892.8197602424451	-637.0304410379579	8452.360807763602	879.5258523113118	-646.2867736997914	8452.795049747576	873.4718300792556	-657.2362276654641	8444.988991551574	872.4795466507047	-666.6855400146768	8434.425104517328	873.9079576658436	-674.2679015867262	8439.205763280419	888.8138152705885	-634.1256898811824	8452.941659289787	874.0694830591405	-640.7437949566385	8453.696376757998	868.1519673781925	-648.7941885052921	8448.199481499254	866.9107540996775	-655.3394656474677	8438.954898427977	867.878302363887	-661.8564521132405	8149.094472296353	1187.9496159948205	-417.9806220214381	8095.894044888878	1124.5234721792674	-347.6342798920485	8198.165679340882	998.4756154998697	-509.24895489943293	8376.714103761105	936.3425868095657	-494.4765974341094	8369.573668954234	946.7512234795981	-500.33788783175385	8374.695473240852	946.5736989349449	-525.8420378892422	8378.852474087453	944.3750607819717	-545.6142966335794	8382.822864255311	940.7670324041895	-563.8180726761487	8369.858643902613	940.7979169396141	-506.90097624763285	8366.662050878002	937.6146321684889	-538.4778604974499	8370.716639726797	932.567960546697	-566.7775471971321	8376.451283934459	929.8135700299423	-583.754885332949	8383.36572703554	927.7921896304417	-597.3911288633022	8371.873540133483	935.13043678197	-511.57261446198	8369.843745770233	928.9608205736948	-544.8968454092889	8374.55218181758	922.7128768941642	-576.2993209915882	8381.607146829441	919.0342126265036	-597.0322886704416	8389.239076227383	916.6495891953386	-612.0745527030285	8373.318100294588	931.2221457363569	-514.0225381167799	8372.575868124917	922.3428367776269	-545.883350381482	8376.97397943445	916.1492669391655	-573.7352656381851	8383.935308344307	912.2037592268722	-593.989508878668	8391.18529482021	909.7734145681223	-608.2541729668843	8375.552524426983	926.6952150564099	-516.2842808910525	8376.045107114787	915.8081309253221	-546.7610688832708	8380.029651225062	909.7204509437571	-569.6762780049804	8385.331097392174	906.2968825805906	-584.7460585415292	8391.882217575387	903.8299378073418	-597.5527278465646
70	0.575	8446.805	859.65103	-201.189	8531.255973763926	855.3207366763988	-232.4891546310257	8395.163592430856	463.5625264952223	-284.7889389504958	8433.260576622839	46.56218012263912	-346.41222424959346	8357.434250548426	-32.65590887102232	-188.7235911832342	8371.738131796159	836.2204078737083	-155.93818999800567	8250.405090970047	439.73318283149405	-98.16629803072526	8194.039304912885	63.323565845137736	71.39498980072764	8228.537271023415	18.421778433668642	252.49280397401196	8400.615228035978	981.1558409838086	-260.3280930504805	8347.256877524505	1046.4208551917877	-307.94751994575455	8285.079637682858	1107.7937649614055	-357.9005940060645	8217.478090911136	1157.103314656666	-406.19257494272233	8144.444906311021	1210.1365242712147	-454.2894659353013	8102.820846742894	1282.6487148183164	-410.2912411436971	8079.337072560081	1368.2995888424446	-277.9248660761662	8187.204899539285	1199.5847526183882	-456.9253251523508	8262.644345593571	1203.1742359325006	-530.1079554216933	8335.885023950046	991.2056295013051	-546.893580184974	8424.577842110944	904.6215472592324	-630.8448535649808	8427.48733162347	911.8771950649935	-643.4645419169574	8419.587583740313	913.9368955195637	-659.5332265774334	8415.417006820186	913.14967020364	-669.8783332188441	8413.078648736791	910.5928716701934	-677.7796158075541	8434.164131606545	904.4462893274739	-641.1662716147231	8446.650754111819	896.5133049722525	-655.6534041266091	8446.583989687188	891.7018602069887	-668.0134758794934	8439.683190403564	891.5250920057053	-676.5126579808489	8429.344599430691	893.2772537104495	-684.0971241385892	8436.932914789197	898.7137123058917	-638.4717217138359	8450.612124784773	887.8751623240569	-651.1439023362889	8450.85316628724	881.895133468251	-664.2315134007409	8442.678218293362	881.331677768487	-674.2936700174815	8431.439137321677	883.078618938214	-682.4992111530998	8438.670516333106	894.8427821622038	-636.1725566927981	8452.731035265608	881.7008537507166	-645.4580995574429	8453.239296442642	875.7600649085978	-656.4371068621224	8445.512238335737	874.8296583427442	-665.9154551673843	8435.0196915506	876.2888806237571	-673.522972229496	8439.522936999607	890.794714091236	-633.306001137417	8453.284573569861	876.1646454921954	-639.9736063891279	8454.094689123947	870.3283063119019	-648.056837721182	8448.653542993368	869.1276324262907	-654.627730900593	8439.471077370374	870.1198306604051	-661.1695546293065	8149.569409452901	1188.4245874993749	-417.8100960641944	8096.564496071493	1125.1583599766705	-347.7521796172798	8198.639851903912	999.4610406535404	-508.8534247351276	8376.678591666654	937.9156290070462	-493.9521564107405	8369.665982980949	948.4710353139825	-499.79304315694594	8374.870228038626	948.3492468186096	-525.1972933734899	8379.072425128072	946.1842905849243	-544.8980025551025	8383.070043423246	942.5999505338045	-563.0404375820713	8369.921496946543	942.522965724323	-506.3542299520323	8366.818663548751	939.508904640077	-537.8590796515402	8370.924609502878	934.5256713098523	-566.0708957977945	8376.68623313414	931.7719512548683	-582.9800903509672	8383.61966866487	929.7249748338878	-596.550815510264	8371.899245368646	936.8330534798563	-511.02119808522997	8369.940812027666	930.8163749512119	-544.2726534194722	8374.700065840047	924.6340784539137	-575.5788150608106	8381.785074131898	920.9545066464939	-596.2293637872799	8389.436566234348	918.5410420511911	-611.1998385959132	8373.315247849521	932.9051475850345	-513.4700164879872	8372.61241289434	924.1474884375446	-545.2656892770664	8377.049365321476	918.0072341318684	-573.0333285177313	8384.036778110165	914.0587783210642	-593.2078976833429	8391.303786453269	911.6003334616536	-607.4049791236434	8375.513412387782	928.3463607926119	-515.7297682472665	8376.020074256918	917.5531199374511	-546.1467543849392	8380.027043030022	911.5015096674344	-568.9942474319714	8385.343317113964	908.0725869914339	-584.0058016505102	8391.907100038745	905.5789060904589	-596.7525394229481
71	0.583	8446.805	859.65103	-201.189	8530.941076907611	855.241384951554	-232.49977686976118	8395.254131295995	463.3885860162386	-284.55981628624767	8433.740967174577	46.766623372115184	-346.65856309618346	8358.375916158393	-32.599965013043025	-189.12108169456988	8372.032410422187	836.2902852765812	-155.93448415444195	8250.668763550348	439.85889771953606	-97.9331171620108	8194.179997219759	63.46874254252803	71.61311858631942	8228.901202991483	18.532346848477744	252.63054835524085	8400.724448455701	981.2023161702416	-260.296892029458	8347.433088226087	1046.5497629799231	-307.862803301854	8285.33875435055	1108.035987239455	-357.75707540507244	8217.820519418852	1157.4797914629041	-405.99352195125283	8144.874657983058	1210.6518872850897	-454.0279768834254	8103.252750079997	1283.1768975162017	-410.0690037757842	8079.769639360132	1368.8670320564845	-277.7503485035573	8187.530526758255	1200.0383020800016	-456.62277429354623	8262.71653690494	1203.682197046579	-529.5132693359692	8336.272227730204	992.2133331214699	-545.972139849577	8424.890575868409	906.5312733446417	-629.9683632458448	8427.859685546668	913.9780954931077	-642.4816609843463	8420.075732140722	916.1865533659325	-658.5392722122074	8415.980231328569	915.4936665648172	-668.8917398703142	8413.69970179141	913.0075955789357	-676.8120532216315	8434.51534555494	906.5360654361411	-640.2213593841471	8447.06902241493	898.824357060632	-654.687121110394	8447.084536148433	894.1427731549951	-667.0659792307762	8440.253766808572	894.0238666521038	-675.5846962676364	8429.985873138228	895.8084920577438	-683.1906302477984	8437.268356730941	900.7694647396033	-637.5701480955834	8451.004428284703	890.1283441599426	-650.2449165773551	8451.332997523597	884.2847821113277	-663.3588570993813	8443.241456440834	883.7886211523668	-673.4473794521441	8432.079205322949	885.5698616798232	-681.6777702910753	8438.99271956904	896.8690787544291	-635.30189966022	8453.091580242764	883.8791852089414	-644.6158755187843	8453.673741653518	878.0516746880734	-655.62378897759	8446.025867336562	877.1831698739966	-665.130732831562	8435.604958728392	878.6732160932922	-672.763114072236	8439.830969464085	892.7788506390887	-632.4735459096703	8453.617767558319	878.2630741623361	-639.1899436608023	8454.483167782339	872.5079387663912	-647.305493864687	8449.097895988596	871.3478182214157	-653.9016815223229	8439.977806674584	872.364675230312	-660.4680842729152	8150.046871504442	1188.9019618610812	-417.6384188396167	8097.240150286003	1125.7982133332755	-347.8695791417859	8199.116239643286	1000.4504556631528	-508.4508880372807	8376.638440405886	939.4915441960923	-493.4204017813247	8369.753635967412	950.193760882695	-499.2405923175784	8375.040161355855	950.1275860069953	-524.5441632232672	8379.287489708033	947.9962066944596	-544.1727320534956	8383.312321953417	944.4354505522982	-562.2532925164468	8369.979885129263	944.250871607782	-505.7997060461878	8366.971118622774	941.4058917426421	-537.2315157247818	8371.128472069191	936.4859421043938	-565.35461556817	8376.91695481249	933.7327930901646	-582.1951776677654	8383.869180907086	931.6601361266985	-595.7000047289257	8371.920594433566	938.5384759149267	-510.4619016937644	8370.033880649	932.6745683414869	-543.6395453602132	8374.844020349386	926.5577439433225	-574.848459746644	8381.958933075119	922.8771415848041	-595.415994709632	8389.629770069556	920.4347418546457	-610.3142623703931	8373.308110209779	934.5909229252691	-512.9095691230018	8372.645061327748	925.9547373660538	-544.6391370708417	8377.120927092355	919.8676397230583	-572.3216777740486	8384.1342966522	915.9161138313789	-592.4159943207063	8391.418125295666	913.4294788380931	-606.5450978840405	8375.470072092812	930.0002437868155	-515.1672986648713	8375.991211803232	919.3006635544649	-545.5235812118578	8380.02068139709	913.2849867669005	-568.3026896363422	8385.351699550292	909.8506164443532	-583.2555907539635	8391.92797176338	907.3301172405703	-595.9420441281713
